<svg width="70" height="70" viewBox="0 0 70 70" fill="none" xmlns="http://www.w3.org/2000/svg">
<rect width="70" height="70" rx="35" fill="#0277BD" fill-opacity="0.125"/>
<g clip-path="url(#clip0_2059_3294)">
<path d="M45.0938 16H24.9062C19.9875 16 16 19.9875 16 24.9062V45.0938C16 50.0125 19.9875 54 24.9062 54H45.0938C50.0125 54 54 50.0125 54 45.0938V24.9062C54 19.9875 50.0125 16 45.0938 16Z" fill="#0277BD"/>
<path d="M23.979 31.2373L24.4038 35.9786H35.0142V31.2373H23.979ZM35.0141 21.6406H23.125L23.5561 26.382H35.0141V21.6406ZM35.0141 48.4842V43.5512L34.9933 43.5567L29.7128 42.1309L29.3753 38.3493H24.6156L25.2799 45.7941L34.9923 48.4903L35.0141 48.4842Z" fill="#EBEBEB"/>
<path d="M40.8365 35.9786L40.2861 42.1278L34.998 43.5552V48.4879L44.7182 45.7941L44.7894 44.993L45.9036 32.5106L46.0192 31.2373L46.8753 21.6406H34.998V26.382H41.6791L41.2477 31.2373H34.998V35.9786H40.8365Z" fill="white"/>
</g>
<defs>
<clipPath id="clip0_2059_3294">
<rect width="38" height="38" fill="white" transform="translate(16 16)"/>
</clipPath>
</defs>
</svg>
