<svg width="70" height="70" viewBox="0 0 70 70" fill="none" xmlns="http://www.w3.org/2000/svg">
<path d="M0 35C0 15.67 15.67 0 35 0C54.33 0 70 15.67 70 35C70 54.33 54.33 70 35 70C15.67 70 0 54.33 0 35Z" fill="#A259FF" fill-opacity="0.125"/>
<g clip-path="url(#clip0_2059_2900)">
<path d="M45.0938 16H24.9062C19.9875 16 16 19.9875 16 24.9062V45.0938C16 50.0125 19.9875 54 24.9062 54H45.0938C50.0125 54 54 50.0125 54 45.0938V24.9062C54 19.9875 50.0125 16 45.0938 16Z" fill="#242938"/>
<mask id="mask0_2059_2900" style="mask-type:luminance" maskUnits="userSpaceOnUse" x="25" y="20" width="20" height="30">
<path d="M25.0547 20.1562H44.8503V49.8438H25.0547V20.1562Z" fill="white"/>
</mask>
<g mask="url(#mask0_2059_2900)">
<path d="M30.0047 49.8431C32.7359 49.8431 34.9525 47.6265 34.9525 44.8953V39.9473H30.0047C27.2734 39.9473 25.0566 42.164 25.0566 44.8953C25.0566 47.6265 27.2734 49.8431 30.0047 49.8431Z" fill="#0ACF83"/>
<path d="M25.0566 35.0006C25.0566 32.2694 27.2734 30.0527 30.0047 30.0527H34.9525V39.9485H30.0047C27.2734 39.9485 25.0566 37.7319 25.0566 35.0006Z" fill="#A259FF"/>
<path d="M25.0566 25.1041C25.0566 22.3729 27.2734 20.1562 30.0047 20.1562H34.9525V30.0521H30.0047C27.2734 30.0521 25.0566 27.8354 25.0566 25.1041Z" fill="#F24E1E"/>
<path d="M34.9521 20.1562H39.9C42.6313 20.1562 44.848 22.3729 44.848 25.1041C44.848 27.8354 42.6313 30.0521 39.9 30.0521H34.9521V20.1562Z" fill="#FF7262"/>
<path d="M44.848 35.0006C44.848 37.7319 42.6313 39.9485 39.9 39.9485C37.1688 39.9485 34.9521 37.7319 34.9521 35.0006C34.9521 32.2694 37.1688 30.0527 39.9 30.0527C42.6313 30.0527 44.848 32.2694 44.848 35.0006Z" fill="#1ABCFE"/>
</g>
</g>
<defs>
<clipPath id="clip0_2059_2900">
<rect width="38" height="38" fill="white" transform="translate(16 16)"/>
</clipPath>
</defs>
</svg>
