<svg width="70" height="70" viewBox="0 0 70 70" fill="none" xmlns="http://www.w3.org/2000/svg">
<path d="M0 35C0 15.67 15.67 0 35 0C54.33 0 70 15.67 70 35C70 54.33 54.33 70 35 70C15.67 70 0 54.33 0 35Z" fill="black" fill-opacity="0.125"/>
<path d="M35.0003 19.166C32.9211 19.166 30.8622 19.5756 28.9412 20.3713C27.0202 21.167 25.2747 22.3332 23.8045 23.8035C20.8351 26.7728 19.167 30.8001 19.167 34.9993C19.167 41.9977 23.7112 47.9352 29.997 50.041C30.7887 50.1677 31.042 49.6768 31.042 49.2493V46.5735C26.6562 47.5235 25.722 44.4518 25.722 44.4518C24.9937 42.6152 23.9645 42.1243 23.9645 42.1243C22.5237 41.1427 24.0753 41.1743 24.0753 41.1743C25.6587 41.2852 26.4978 42.8052 26.4978 42.8052C27.8753 45.2118 30.2028 44.4993 31.1053 44.1193C31.2478 43.0902 31.6595 42.3935 32.1028 41.9977C28.5878 41.6018 24.8987 40.2402 24.8987 34.2077C24.8987 32.4502 25.5003 31.041 26.5295 29.9168C26.3712 29.521 25.817 27.8743 26.6878 25.7368C26.6878 25.7368 28.0178 25.3093 31.042 27.3518C32.2928 27.0035 33.6545 26.8293 35.0003 26.8293C36.3462 26.8293 37.7078 27.0035 38.9587 27.3518C41.9828 25.3093 43.3128 25.7368 43.3128 25.7368C44.1837 27.8743 43.6295 29.521 43.4712 29.9168C44.5003 31.041 45.102 32.4502 45.102 34.2077C45.102 40.256 41.397 41.586 37.8662 41.9818C38.4362 42.4727 38.9587 43.4385 38.9587 44.911V49.2493C38.9587 49.6768 39.212 50.1835 40.0195 50.041C46.3053 47.9193 50.8337 41.9977 50.8337 34.9993C50.8337 32.9201 50.4241 30.8612 49.6284 28.9402C48.8327 27.0192 47.6664 25.2738 46.1962 23.8035C44.7259 22.3332 42.9805 21.167 41.0595 20.3713C39.1385 19.5756 37.0796 19.166 35.0003 19.166Z" fill="white"/>
</svg>
