<svg width="70" height="70" viewBox="0 0 70 70" fill="none" xmlns="http://www.w3.org/2000/svg">
<path d="M0 35C0 15.67 15.67 0 35 0C54.33 0 70 15.67 70 35C70 54.33 54.33 70 35 70C15.67 70 0 54.33 0 35Z" fill="#0AE448" fill-opacity="0.125"/>
<path d="M31.5639 28.0176C32.8575 28.0255 33.8391 28.3944 34.4804 29.1132C35.0868 29.7957 35.3781 30.7821 35.3465 32.0424L35.3243 32.139C35.3042 32.1842 35.2713 32.2226 35.2297 32.2493C35.188 32.276 35.1395 32.29 35.09 32.2894H32.4632C32.3809 32.289 32.3019 32.2566 32.2431 32.1989C32.1842 32.1413 32.1502 32.063 32.1481 31.9807C32.1502 31.3114 31.9444 30.9367 31.5306 30.8565L31.3406 30.8391C30.7991 30.8391 30.4476 31.1732 30.4381 31.7558C30.4271 32.405 30.7944 32.9956 31.8394 34.0089C33.2137 35.3009 33.7663 36.4457 33.7394 37.9562C33.6966 40.4008 32.0341 41.9826 29.5071 41.9826C28.2167 41.9826 27.2303 41.6358 26.5732 40.955C25.9082 40.2631 25.6042 39.2482 25.6676 37.9372C25.6705 37.8705 25.6982 37.8073 25.7451 37.7598C25.7927 37.7138 25.8563 37.6883 25.9225 37.6886H28.6395C28.6772 37.691 28.7142 37.7001 28.7487 37.7155C28.8111 37.748 28.8583 37.8037 28.8801 37.8707C28.8886 37.9023 28.8896 37.934 28.8833 37.9657C28.8532 38.4375 28.9371 38.7906 29.1224 38.9869C29.1858 39.0524 29.2627 39.1034 29.3477 39.1365C29.4326 39.1696 29.5238 39.1839 29.6148 39.1785C30.1167 39.1785 30.4112 38.8222 30.4223 38.2047C30.4318 37.6712 30.2608 37.2009 29.3425 36.2541C28.1534 35.0919 27.0878 33.8917 27.1211 32.0044C27.1251 31.4761 27.2357 30.9541 27.4463 30.4695C27.6569 29.985 27.9631 29.5479 28.3466 29.1845C29.1604 28.4213 30.2719 28.0176 31.5639 28.0176ZM22.4075 28.0619C23.5902 28.0524 24.5196 28.4166 25.1656 29.1465C25.8496 29.9176 26.1964 31.0797 26.198 32.6013C26.1971 32.6682 26.1699 32.7321 26.1221 32.779C26.0743 32.8258 26.01 32.8519 25.9431 32.8515H23.0915C23.0417 32.8492 22.9944 32.829 22.9585 32.7945C22.9242 32.7579 22.9045 32.71 22.9031 32.6599C22.8809 31.6735 22.6054 31.1621 22.0607 31.1019L21.9483 31.0956C20.8558 31.0972 20.2114 32.5807 19.8694 33.4041C19.3858 34.556 19.1558 35.7986 19.1949 37.0473C19.2186 37.6268 19.3121 38.4407 19.8599 38.7779C20.3476 39.0772 21.0426 38.8792 21.4638 38.5467C21.8834 38.2158 22.2222 37.6427 22.3647 37.1202C22.3858 37.0463 22.3864 36.9945 22.3663 36.965C22.3557 36.9534 22.3389 36.9455 22.3156 36.9412L21.5176 36.9349C21.4789 36.9338 21.4408 36.9248 21.4057 36.9084C21.3706 36.8921 21.3392 36.8688 21.3134 36.8399C21.2929 36.8178 21.2792 36.7904 21.2738 36.7607C21.2654 36.7318 21.2654 36.701 21.2738 36.6721L21.7741 34.4966C21.7888 34.44 21.8205 34.3893 21.865 34.3513C21.9095 34.3134 21.9645 34.29 22.0227 34.2844V34.2797H26.8281L26.8614 34.2812C26.9865 34.2971 27.0751 34.4142 27.0736 34.5409V34.5472L26.5732 36.718C26.5463 36.8415 26.4228 36.9317 26.2819 36.9317H25.6786C25.6568 36.9319 25.6357 36.939 25.6183 36.9522C25.6009 36.9653 25.5882 36.9837 25.5821 37.0046C25.0247 38.8951 24.2695 40.1966 23.2736 40.9772C22.4249 41.6422 21.3815 41.9525 19.985 41.9525C18.731 41.9525 17.8855 41.5487 17.1682 40.7523C16.2214 39.6978 15.8303 37.9752 16.0678 35.8962C16.4953 31.9965 18.5156 28.0619 22.4075 28.0619ZM49.2751 28.2709C52.4576 28.2709 54.0472 29.7149 53.9981 32.5633C53.9396 35.901 51.9066 38.3552 48.846 38.922C48.41 38.9991 47.9704 39.0349 47.5271 39.0297L46.0482 39.0233C46.0244 39.0241 46.0017 39.0338 45.9847 39.0505C45.9677 39.0672 45.9576 39.0898 45.9564 39.1136C45.9564 39.1294 45.9606 39.1447 45.969 39.1595C45.9789 39.1723 45.9906 39.1835 46.0039 39.1927L47.261 39.8482C47.3645 39.9042 47.4046 39.9907 47.3814 40.1079L47.0536 41.5852C47.0267 41.7087 46.927 41.7799 46.7829 41.7799H44.0865C44.0479 41.7789 44.0098 41.7709 43.974 41.7562C43.9394 41.7388 43.9083 41.7151 43.8822 41.6865C43.8626 41.6634 43.8488 41.6361 43.8419 41.6066C43.835 41.5771 43.8353 41.5464 43.8426 41.5171L46.8446 28.4688C46.8747 28.3327 47.003 28.2725 47.117 28.2725L49.2751 28.2709ZM43.3486 28.2899C43.3781 28.3031 43.4053 28.3207 43.4294 28.3422C43.4515 28.3666 43.4697 28.3944 43.4832 28.4245C43.4937 28.4546 43.4996 28.4861 43.5006 28.5179L43.4832 41.5218C43.4881 41.5524 43.4865 41.5837 43.4785 41.6137C43.4693 41.6458 43.453 41.6754 43.4308 41.7004C43.4086 41.7253 43.3811 41.7449 43.3502 41.7577C43.3185 41.7725 43.2838 41.7796 43.2489 41.7783H40.3783C40.3127 41.7782 40.2497 41.7527 40.2026 41.7071C40.1811 41.683 40.1635 41.6557 40.1503 41.6263C40.1391 41.5958 40.1327 41.5638 40.1313 41.5313L40.1931 40.2694C40.1962 40.1317 40.1931 40.0937 40.1123 40.0842L40.0046 40.081H37.2908C37.0945 40.081 37.0802 40.0984 37.0106 40.2789L36.4469 41.6358C36.3962 41.7308 36.2949 41.7783 36.1429 41.7783H33.3008C33.1282 41.7783 33.0047 41.6073 33.0696 41.4474L38.9565 28.4657C38.9961 28.3881 39.0562 28.2709 39.1924 28.2709H43.2552C43.2869 28.2709 43.318 28.2772 43.3486 28.2899ZM40.5414 31.8097C40.5287 31.759 40.4876 31.7637 40.4543 31.8302C40.4307 31.8782 40.4096 31.9274 40.391 31.9775L38.358 37.0172L38.3326 37.0932C38.3305 37.1038 38.33 37.1138 38.3311 37.1233L38.3421 37.1502C38.3484 37.1584 38.3565 37.1649 38.3659 37.1692C38.374 37.1744 38.3832 37.1777 38.3928 37.1787L40.0901 37.2009C40.2786 37.1851 40.2881 37.1756 40.3071 36.984C40.3102 36.9159 40.5509 31.8682 40.5414 31.8097ZM47.8437 31.1716C47.82 31.1723 47.7974 31.1819 47.7804 31.1985C47.7632 31.2153 47.7531 31.2379 47.7519 31.2618C47.7521 31.2782 47.7567 31.2943 47.765 31.3085C47.7733 31.3226 47.7852 31.3344 47.7994 31.3426L49.1326 32.0472C49.1991 32.0836 49.2006 32.1469 49.1785 32.2562C49.1674 32.3052 48.3235 36.0166 48.3251 36.0197C48.3298 36.0245 48.3551 36.0372 48.4818 36.0372H48.5388C49.9559 35.9802 50.7285 34.305 50.757 32.6789C50.7713 31.8002 50.4721 31.2602 49.929 31.1811L49.8166 31.1716H47.8437Z" fill="white"/>
</svg>
