<svg width="70" height="70" viewBox="0 0 70 70" fill="none" xmlns="http://www.w3.org/2000/svg">
<rect width="70" height="70" rx="35" fill="#E34C26" fill-opacity="0.125"/>
<path d="M24.2696 50.5431L21.8818 23.7617H48.1191L45.7289 50.539L34.9844 53.5175L24.2696 50.5431Z" fill="#E44D26"/>
<path d="M35 51.2402L43.6818 48.8331L45.7246 25.9512H35V51.2402Z" fill="#F16529"/>
<path d="M34.9999 35.8848H30.6533L30.3535 32.521H34.9999V29.2363H26.7637L26.842 30.1177L27.6495 39.1692H34.9999V35.8848ZM34.9999 44.415L34.9853 44.4188L31.3275 43.4308L31.0936 40.8115H27.7962L28.2564 45.9688L34.9847 47.8367L34.9999 47.8323V44.415Z" fill="#EBEBEB"/>
<path d="M24.3223 16.4824H25.9913V18.1319H27.5184V16.4824H29.1878V21.4765H27.5184V19.8042H25.9916V21.4765H24.3223V16.4824ZM31.3825 18.1387H29.913V16.4824H34.522V18.1387H33.0519V21.4765H31.3825V18.1387ZM35.2535 16.4824H36.9938L38.0646 18.2373L39.1343 16.4824H40.8754V21.4765H39.2126V19.0011L38.0646 20.7767H38.0355L36.8866 19.0011V21.4765H35.2532L35.2535 16.4824ZM41.7064 16.4824H43.376V19.8258H45.7234V21.4767H41.7064V16.4824Z" fill="black"/>
<path d="M34.9883 35.8848V39.1692H39.0329L38.6517 43.429L34.9883 44.4179V47.835L41.722 45.9688L41.7713 45.4136L42.5432 36.7666L42.6233 35.8848H41.738H34.9883ZM34.9883 29.2363V32.521H42.9223L42.9879 31.7826L43.1378 30.1177L43.2165 29.2363H34.9883Z" fill="white"/>
</svg>
