<svg width="70" height="70" viewBox="0 0 70 70" fill="none" xmlns="http://www.w3.org/2000/svg">
<path d="M0 35C0 15.67 15.67 0 35 0C54.33 0 70 15.67 70 35C70 54.33 54.33 70 35 70C15.67 70 0 54.33 0 35Z" fill="#FF9A00" fill-opacity="0.125"/>
<g clip-path="url(#clip0_2059_2942)">
<path d="M22.7391 16.4746H47.2906C51.0016 16.4746 54.0297 19.473 54.0297 23.2137V46.8152C54.0297 50.5262 51.0312 53.5543 47.2906 53.5543H22.7391C18.9984 53.5246 16 50.5262 16 46.7855V23.2137C16 19.473 18.9984 16.4746 22.7391 16.4746Z" fill="#330000"/>
<path d="M34.3762 38.6523H28.4684L27.2809 42.3633C27.2512 42.5117 27.1325 42.6008 26.9841 42.5711H24.0153C23.8372 42.5711 23.8075 42.482 23.8372 42.2742L28.9434 27.6086C29.0028 27.4602 29.0325 27.282 29.0919 27.0742C29.1512 26.7477 29.1809 26.3914 29.1809 26.0352C29.1512 25.9461 29.2403 25.8867 29.2997 25.857H33.3966C33.5153 25.857 33.5747 25.9164 33.6044 25.9758L39.3934 42.2742C39.4528 42.4523 39.3934 42.5414 39.245 42.5414H35.92C35.8012 42.5711 35.7122 42.482 35.6528 42.3633L34.3762 38.6523ZM29.3887 35.4164H33.3966C33.3075 35.0898 33.1887 34.6742 33.0403 34.2883C32.8919 33.8727 32.7434 33.3977 32.6247 32.9227C32.4762 32.418 32.3278 31.943 32.1794 31.468C32.0309 30.9633 31.8825 30.518 31.7637 30.0727C31.645 29.6273 31.5262 29.2117 31.4075 28.8258H31.3778C31.2294 29.5086 31.0512 30.1914 30.8434 30.8742C30.6059 31.6461 30.3684 32.418 30.1012 33.2195C29.8637 34.0211 29.6262 34.7633 29.3887 35.4164ZM42.9262 28.6773C42.3919 28.707 41.8872 28.4992 41.5309 28.1133C41.1747 27.7273 40.9669 27.193 40.9966 26.6586C40.9669 26.1242 41.1747 25.6195 41.5606 25.2633C41.9466 24.907 42.4512 24.6992 42.9559 24.6992C43.5794 24.6992 44.0544 24.8773 44.4106 25.2633C44.7669 25.6492 44.945 26.1539 44.945 26.6586C44.9747 27.193 44.7669 27.7273 44.3809 28.1133C43.995 28.4992 43.4606 28.707 42.9262 28.6773ZM41.145 42.4227V30.2211C41.145 30.0727 41.2044 30.0133 41.3528 30.0133H44.4997C44.6481 30.0133 44.7075 30.1023 44.7075 30.2211V42.4227C44.7075 42.6008 44.6481 42.6898 44.4997 42.6898H41.3825C41.2341 42.6602 41.145 42.5711 41.145 42.4227Z" fill="#FF9A00"/>
</g>
<defs>
<clipPath id="clip0_2059_2942">
<rect width="38" height="38" fill="white" transform="translate(16 16)"/>
</clipPath>
</defs>
</svg>
