<svg width="70" height="70" viewBox="0 0 70 70" fill="none" xmlns="http://www.w3.org/2000/svg">
<rect width="70" height="70" rx="35" fill="#F5DE19" fill-opacity="0.125"/>
<path d="M38.2937 39.3934C38.6625 40.1399 39.2342 40.7674 39.9433 41.2039C40.6524 41.6403 41.4701 41.8681 42.3027 41.861C43.9866 41.861 45.0625 41.0191 45.0625 39.8565C45.0625 38.4636 43.9569 37.9696 42.1044 37.1585L41.0879 36.7227C38.156 35.4734 36.2073 33.9083 36.2073 30.5999C36.2073 27.5516 38.53 25.2324 42.159 25.2324C43.3368 25.1473 44.5136 25.4111 45.5423 25.9908C46.5711 26.5705 47.4062 27.4405 47.9434 28.4921L44.7787 30.5239C44.571 30.003 44.21 29.5575 43.7435 29.2464C43.2769 28.9353 42.7269 28.7733 42.1662 28.7819C41.9218 28.7575 41.6749 28.7842 41.4414 28.8604C41.2079 28.9366 40.9928 29.0606 40.8099 29.2245C40.6269 29.3883 40.4801 29.5885 40.3787 29.8122C40.2773 30.0359 40.2236 30.2783 40.221 30.5239C40.221 31.7435 40.9763 32.2363 42.7148 32.9916L43.7313 33.4262C47.1845 34.907 49.1332 36.4163 49.1332 39.8102C49.1332 43.4689 46.2595 45.4734 42.3989 45.4734C40.8953 45.5683 39.3963 45.2264 38.0824 44.489C36.7686 43.7516 35.6959 42.6501 34.9937 41.3171L38.2937 39.3934ZM23.9392 39.7496C24.5781 40.8825 25.1588 41.8396 26.5517 41.8396C27.8865 41.8396 28.7296 41.3171 28.7296 39.2865V25.4699H32.7932V39.3435C32.7932 43.5508 30.3256 45.4663 26.7251 45.4663C25.4532 45.5354 24.1902 45.2178 23.1024 44.5552C22.0145 43.8926 21.1529 42.916 20.6309 41.7541L23.9392 39.7496Z" fill="#F5DE19"/>
</svg>
