<svg width="70" height="70" viewBox="0 0 70 70" fill="none" xmlns="http://www.w3.org/2000/svg">
<path d="M0 35C0 15.67 15.67 0 35 0C54.33 0 70 15.67 70 35C70 54.33 54.33 70 35 70C15.67 70 0 54.33 0 35Z" fill="black" fill-opacity="0.125"/>
<g clip-path="url(#clip0_2059_3043)">
<path d="M19.2629 17.636L40.0752 16.0862C42.6316 15.865 43.2884 16.0142 44.8958 17.1923L51.5393 21.9114C52.6352 22.7229 53 22.9442 53 23.8278V49.7085C53 51.3305 52.4157 52.2898 50.3709 52.4366L26.2025 53.9118C24.6679 53.9851 23.937 53.7639 23.1334 52.7311L18.2412 46.3169C17.3637 45.1362 17 44.2524 17 43.2196V20.2149C17 18.8888 17.5843 17.7827 19.2629 17.636Z" fill="white"/>
<path d="M40.0752 16.0862L19.2629 17.636C17.5843 17.7827 17 18.8888 17 20.2149V43.2198C17 44.2526 17.3635 45.1362 18.2412 46.3169L23.1334 52.7311C23.937 53.7639 24.6679 53.9851 26.2025 53.9118L50.3709 52.4366C52.4144 52.2898 53 51.3305 53 49.7085V23.8278C53 22.9897 52.6715 22.7483 51.7048 22.0328L51.5382 21.9114L44.8958 17.1923C43.2884 16.0142 42.6317 15.865 40.0752 16.0862ZM26.7491 23.4043C24.7757 23.5383 24.3281 23.5687 23.2073 22.6496L20.3576 20.364C20.0679 20.0683 20.2133 19.699 20.943 19.6257L40.9503 18.1518C42.6303 18.0039 43.5054 18.5942 44.1624 19.11L47.5938 21.6169C47.7405 21.6913 48.1054 22.1326 47.6665 22.1326L27.0049 23.3866L26.7491 23.4043ZM24.4485 49.4874V27.5165C24.4485 26.557 24.7406 26.1147 25.6157 26.0401L49.3466 24.6393C50.1515 24.566 50.5152 25.0817 50.5152 26.0401V47.8641C50.5152 48.8236 50.3683 49.6351 49.0545 49.7085L26.3454 51.0359C25.0315 51.1092 24.4485 50.668 24.4485 49.4874ZM46.8655 28.6945C47.0109 29.3583 46.8655 30.022 46.2073 30.0978L45.1128 30.3165V46.538C44.1624 47.0536 43.2873 47.3483 42.5562 47.3483C41.3879 47.3483 41.0957 46.9791 40.2206 45.8742L33.063 34.5197V45.5051L35.3271 46.0221C35.3271 46.0221 35.3271 47.3496 33.5005 47.3496L28.4642 47.6441C28.3175 47.3483 28.4642 46.6113 28.9746 46.4646L30.2896 46.0967V31.5719L28.4643 31.4227C28.3175 30.7592 28.6823 29.8008 29.7055 29.7262L35.1091 29.3597L42.5563 40.8608V30.6859L40.6582 30.4658C40.5115 29.6529 41.0957 29.0626 41.8254 28.9906L46.8655 28.6945Z" fill="black"/>
</g>
<defs>
<clipPath id="clip0_2059_3043">
<rect width="36" height="38" fill="white" transform="translate(17 16)"/>
</clipPath>
</defs>
</svg>
