<svg width="70" height="70" viewBox="0 0 70 70" fill="none" xmlns="http://www.w3.org/2000/svg">
<path d="M0 35C0 15.67 15.67 0 35 0C54.33 0 70 15.67 70 35C70 54.33 54.33 70 35 70C15.67 70 0 54.33 0 35Z" fill="#31A8FF" fill-opacity="0.125"/>
<g clip-path="url(#clip0_2059_2921)">
<path d="M22.7293 16.4746H47.2707C50.9918 16.4746 54 19.4828 54 23.2039V46.7953C54 50.5164 50.9918 53.5246 47.2707 53.5246H22.7293C19.0082 53.5246 16 50.5164 16 46.7953V23.2039C16 19.4828 19.0082 16.4746 22.7293 16.4746Z" fill="#001E36"/>
<path d="M29.6166 25.8965C29.1416 25.8965 28.6666 25.8965 28.1758 25.9125C27.6848 25.9283 27.2255 25.9282 26.798 25.9443C26.3705 25.96 25.9748 25.96 25.5948 25.9757C25.2305 25.9915 24.9773 25.9915 24.708 25.9915C24.5973 25.9915 24.5498 26.0547 24.5498 26.1658V42.4583C24.5498 42.6007 24.613 42.6643 24.7398 42.6643H27.8116C27.9223 42.6483 28.0016 42.5533 27.9855 42.4425V37.36C28.2863 37.36 28.508 37.36 28.6666 37.3757C28.8248 37.3915 29.078 37.3915 29.458 37.3915C30.7566 37.3915 31.9441 37.249 33.0205 36.8532C34.0498 36.4732 34.9366 35.8083 35.5698 34.9215C36.2031 34.0348 36.5198 32.9107 36.5198 31.549C36.5198 30.8365 36.3933 30.1557 36.1558 29.4907C35.9042 28.8132 35.5099 28.1977 34.9998 27.6858C34.3977 27.1008 33.6729 26.6572 32.878 26.3872C31.9913 26.0547 30.9148 25.8965 29.6166 25.8965ZM29.9699 29.0152C30.5339 29.0258 31.0831 29.1244 31.5955 29.3322C32.0548 29.5065 32.4348 29.8232 32.7041 30.2347C32.9566 30.6606 33.0829 31.1494 33.0683 31.6443C33.0683 32.3408 32.9098 32.8793 32.5773 33.275C32.2288 33.6708 31.7855 33.9718 31.2791 34.1143C30.693 34.3043 30.0755 34.399 29.458 34.399H28.6188C28.4288 34.399 28.2233 34.3833 28.0016 34.3675V29.0475C28.1123 29.0315 28.3341 29.0158 28.6508 29.0318C28.9516 29.0158 29.3155 29.0157 29.7273 29.0157C29.8085 29.0138 29.8893 29.0136 29.9699 29.0152ZM43.2491 29.8235C42.1248 29.8235 41.1905 29.9975 40.4466 30.3775C39.7658 30.6943 39.1798 31.2007 38.7841 31.834C38.4358 32.42 38.2455 33.069 38.2455 33.75C38.232 34.3101 38.3571 34.8649 38.6098 35.365C38.9059 35.8975 39.3171 36.3572 39.8133 36.7108C40.5098 37.1871 41.2657 37.5704 42.0616 37.8507C42.8373 38.1515 43.3598 38.389 43.6133 38.5947C43.8666 38.8008 43.9933 39.0065 43.9933 39.2282C43.9933 39.5132 43.8191 39.7825 43.5658 39.8933C43.2808 40.0358 42.8533 40.115 42.2516 40.115C41.6183 40.115 40.9848 40.0358 40.383 39.8775C39.6921 39.7232 39.0296 39.4614 38.4198 39.1018C38.3723 39.07 38.3248 39.0543 38.2773 39.086C38.2298 39.1175 38.2141 39.1807 38.2141 39.2282V41.9832C38.1983 42.11 38.2773 42.2207 38.3883 42.284C38.9018 42.5239 39.4449 42.6943 40.0033 42.7907C40.7158 42.9332 41.428 42.9965 42.1563 42.9965C43.2963 42.9965 44.2466 42.8225 45.0223 42.49C45.7348 42.205 46.3523 41.7143 46.7955 41.0808C47.2107 40.4579 47.4261 39.7234 47.413 38.975C47.4287 38.4097 47.3036 37.8493 47.0491 37.3443C46.748 36.8057 46.3205 36.3625 45.798 36.03C45.0337 35.55 44.2152 35.162 43.3598 34.874C42.9778 34.7159 42.6027 34.5415 42.2355 34.3515C42.0298 34.2408 41.8398 34.0983 41.6973 33.924C41.6023 33.7972 41.5391 33.655 41.5391 33.5125C41.5391 33.37 41.5866 33.2118 41.6655 33.085C41.7766 32.9268 41.9505 32.8157 42.1563 32.7682C42.4573 32.6893 42.7898 32.6415 43.1063 32.6572C43.708 32.6572 44.2938 32.7365 44.8798 32.8632C45.4183 32.974 45.9248 33.1482 46.3998 33.4018C46.463 33.4332 46.5423 33.4332 46.6848 33.4018C46.7095 33.3834 46.7296 33.3595 46.7434 33.332C46.7572 33.3044 46.7642 33.274 46.7641 33.2433V30.6625C46.7641 30.599 46.748 30.5358 46.7323 30.4725C46.7005 30.4093 46.6373 30.3457 46.5741 30.33C46.1374 30.1515 45.6798 30.0291 45.2123 29.9658C44.5622 29.8711 43.9061 29.8238 43.2491 29.8235Z" fill="#31A8FF"/>
</g>
<defs>
<clipPath id="clip0_2059_2921">
<rect width="38" height="38" fill="white" transform="translate(16 16)"/>
</clipPath>
</defs>
</svg>
