<svg width="70" height="70" viewBox="0 0 70 70" fill="none" xmlns="http://www.w3.org/2000/svg">
<path d="M0 35C0 15.67 15.67 0 35 0C54.33 0 70 15.67 70 35C70 54.33 54.33 70 35 70C15.67 70 0 54.33 0 35Z" fill="#F44250" fill-opacity="0.125"/>
<path d="M39.905 29.118C39.3609 28.9419 39.0797 29.0013 38.5091 28.9372C37.6268 28.8383 37.2753 28.4835 37.1263 27.5706C37.0429 27.0609 37.1411 26.3149 36.9283 25.8529C36.5209 24.9721 35.5674 24.5769 34.6097 24.8026C33.801 24.9932 33.1283 25.8244 33.0909 26.6779C33.0484 27.652 33.5881 28.4835 34.5147 28.7703C34.9549 28.9069 35.4228 28.9757 35.8827 29.0105C36.7258 29.0737 36.7908 29.5558 37.0188 29.9528C37.1625 30.203 37.302 30.4494 37.302 31.1955C37.302 31.9415 37.1616 32.1882 37.0188 32.4385C36.7908 32.8342 36.5094 33.0937 35.6659 33.1578C35.2064 33.1929 34.7376 33.2617 34.2982 33.3983C33.3714 33.686 32.8317 34.5163 32.8744 35.4907C32.9115 36.3439 33.5846 37.1751 34.3932 37.3657C35.351 37.5922 36.3042 37.1965 36.7118 36.3154C36.9256 35.8535 37.0429 35.3301 37.1263 34.8206C37.2762 33.9077 37.6277 33.553 38.5091 33.4538C39.08 33.3897 39.6705 33.4538 40.2055 33.1415C40.7704 32.7167 41.2754 32.079 41.2754 31.1955C41.2754 30.312 40.7312 29.3857 39.905 29.118Z" fill="#F44250"/>
<path d="M30.8527 33.2657C29.7403 33.2657 28.8333 32.3305 28.8333 31.1846C28.8333 30.0384 29.7403 29.1035 30.8527 29.1035C31.965 29.1035 32.872 30.0384 32.872 31.1846C32.872 32.33 31.9639 33.2657 30.8527 33.2657ZM27.1322 37.495C26.0219 37.4923 25.1173 36.5539 25.12 35.4065C25.1227 34.2614 26.0335 33.3292 27.1465 33.3328C28.2577 33.3358 29.1623 34.2742 29.1587 35.4213C29.156 36.5658 28.2452 37.498 27.1322 37.495ZM42.1375 37.495C41.0236 37.5015 40.1092 36.5729 40.103 35.4296C40.0968 34.2816 40.9978 33.3393 42.1069 33.3328C43.2211 33.3266 44.1354 34.2549 44.1417 35.3985C44.1476 36.5453 43.2469 37.4885 42.1375 37.495ZM19.8469 44.8002C19.7056 44.6479 19.6854 44.4626 19.6248 43.8401C19.5773 43.3565 19.3214 43.1116 18.8835 43.0255C19.4025 42.9593 19.7863 42.5617 19.7863 41.9526C19.7863 41.1379 19.2407 40.6279 18.1425 40.6279H16V44.8002H17.1252V43.4162H17.8863C18.2705 43.4162 18.4795 43.5221 18.513 43.9989C18.5469 44.4294 18.6006 44.6877 18.6882 44.8005L19.8469 44.8002ZM17.1252 42.5487V41.5286H17.9404C18.4255 41.5286 18.668 41.7073 18.668 42.0452C18.668 42.4293 18.4255 42.5487 17.9404 42.5487H17.1252ZM22.3457 43.7472C22.2448 43.979 22.056 44.0785 21.7594 44.0785C21.4293 44.0785 21.1597 43.9063 21.133 43.542H23.2417V43.244C23.2417 42.4424 22.7094 41.767 21.7056 41.767C20.769 41.767 20.0684 42.4359 20.0684 43.3698C20.0684 44.31 20.7556 44.8797 21.719 44.8797C22.514 44.8797 23.0668 44.5021 23.2215 43.8267L22.3457 43.7472ZM21.1463 43.0255C21.1867 42.7473 21.3417 42.5353 21.692 42.5353C22.0156 42.5353 22.1907 42.7604 22.2041 43.0252L21.1463 43.0255ZM25.4225 43.5685C25.4225 43.9526 25.1731 44.1776 24.8632 44.1776C24.6815 44.1776 24.5604 44.0785 24.5604 43.9262C24.5604 43.7341 24.7151 43.6545 24.9778 43.6017L25.4225 43.5221V43.5685ZM26.4939 42.926C26.4939 42.1049 25.9076 41.767 25.1126 41.767C24.2101 41.767 23.7179 42.2174 23.6238 42.8663L24.6343 42.9328C24.6815 42.714 24.8026 42.5618 25.0452 42.5618C25.3079 42.5618 25.4225 42.7075 25.4225 42.9524V42.999L24.5803 43.138C23.9272 43.2508 23.5092 43.4957 23.5092 44.0651C23.5092 44.5686 23.8933 44.8667 24.4793 44.8667C24.9576 44.8667 25.3014 44.6877 25.4765 44.3433C25.5775 44.6811 25.8672 44.8664 26.2377 44.8664C26.5477 44.8664 26.7632 44.7803 26.9182 44.6746V44.1046C26.8412 44.1362 26.7588 44.152 26.6756 44.1512C26.561 44.1512 26.4939 44.085 26.4939 43.9327V42.926ZM27.0426 43.3235C27.0426 44.2637 27.7367 44.8797 28.6867 44.8797C29.5892 44.8797 30.0947 44.31 30.169 43.5949L29.2727 43.5287C29.1985 43.8929 29.0168 44.072 28.7 44.072C28.3699 44.072 28.1407 43.8532 28.1407 43.3235C28.1407 42.7939 28.3699 42.5751 28.7 42.5751C29.0168 42.5751 29.1988 42.7473 29.273 43.1116L30.169 43.0519C30.0947 42.3433 29.5895 41.767 28.6867 41.767C27.7367 41.767 27.0426 42.3896 27.0426 43.3235ZM30.6941 43.979C30.6941 44.6746 31.1721 44.8797 31.6777 44.8797C32.0885 44.8797 32.3516 44.7803 32.5805 44.6149V43.9194C32.3985 43.9924 32.2503 44.0188 32.1156 44.0188C31.8932 44.0188 31.7721 43.9194 31.7721 43.6679V42.5879H32.5535V41.8463H31.7721V41.0317H31.0848L30.9839 41.4158C30.9097 41.6875 30.8153 41.8463 30.5118 41.8926L30.2898 41.9258V42.5879H30.6938L30.6941 43.979ZM38.0854 44.8002C37.9441 44.6479 37.9236 44.4626 37.8631 43.8401C37.8159 43.3565 37.56 43.1116 37.1221 43.0255C37.6407 42.9593 38.0246 42.5617 38.0246 41.9526C38.0246 41.1379 37.4792 40.6279 36.3808 40.6279H34.2385V44.8002H35.3637V43.4162H36.1249C36.509 43.4162 36.7177 43.5221 36.7513 43.9989C36.7851 44.4294 36.8391 44.6877 36.9264 44.8005L38.0854 44.8002ZM35.3637 42.5487V41.5286H36.1789C36.664 41.5286 36.9062 41.7073 36.9062 42.0452C36.9062 42.4293 36.664 42.5487 36.1789 42.5487H35.3637ZM39.405 43.3235C39.405 42.8797 39.5668 42.5751 39.9507 42.5751C40.328 42.5751 40.4963 42.8797 40.4963 43.3232C40.4963 43.7668 40.328 44.0717 39.9507 44.0717C39.5668 44.0717 39.405 43.7671 39.405 43.3235ZM41.5948 43.3235C41.5948 42.4095 40.9277 41.767 39.9507 41.767C38.9671 41.767 38.3069 42.4095 38.3069 43.3235C38.3069 44.2438 38.9671 44.8797 39.9507 44.8797C40.9274 44.8797 41.5948 44.2438 41.5948 43.3235ZM44.0084 43.2968C44.0084 43.7472 43.8739 44.0387 43.5304 44.0387C43.2 44.0387 43.0851 43.8202 43.0851 43.4227V41.8466H41.9944V43.7077C41.9944 44.3234 42.2437 44.8797 43.0655 44.8797C43.5168 44.8797 43.8469 44.6877 44.0087 44.3567V44.8002H45.1V41.8466H44.0087L44.0084 43.2968ZM45.8006 43.979C45.8006 44.6746 46.2789 44.8797 46.7842 44.8797C47.195 44.8797 47.4581 44.7803 47.687 44.6149V43.9194C47.505 43.9924 47.3568 44.0188 47.222 44.0188C47 44.0188 46.8783 43.9194 46.8783 43.6679V42.5879H47.6599V41.8463H46.8783V41.0317H46.1913L46.0904 41.4158C46.0161 41.6875 45.9217 41.8463 45.6183 41.8926L45.3963 41.9258V42.5879H45.8006V43.979ZM50.2229 43.7475C50.1219 43.979 49.9334 44.0785 49.6368 44.0785C49.3067 44.0785 49.0374 43.9063 49.0101 43.542H51.1191V43.244C51.1191 42.4424 50.5868 41.767 49.5828 41.767C48.6465 41.767 47.9455 42.4359 47.9455 43.3698C47.9455 44.31 48.6328 44.8797 49.5965 44.8797C50.3915 44.8797 50.944 44.5021 51.0989 43.8267L50.2229 43.7475ZM49.0238 43.0255C49.0642 42.7473 49.2191 42.5353 49.5694 42.5353C49.893 42.5353 50.0682 42.7604 50.0812 43.0252L49.0238 43.0255ZM53.8925 41.8795C53.8183 41.8202 53.6568 41.767 53.4748 41.767C53.0773 41.767 52.7608 42.0387 52.6528 42.3697V41.8466H51.5615V44.8005H52.6528V43.4494C52.6528 42.9524 52.9022 42.7672 53.3062 42.7672C53.5152 42.7672 53.677 42.807 53.8254 42.8931L53.8925 41.8795Z" fill="#DDDDDD"/>
</svg>
