<svg width="64" height="60" viewBox="0 0 64 60" fill="none" xmlns="http://www.w3.org/2000/svg">
<path d="M0 30C0 13.4315 13.4315 0 30 0H34C50.5685 0 64 13.4315 64 30C64 46.5685 50.5685 60 34 60H30C13.4315 60 0 46.5685 0 30Z" fill="#CC6699" fill-opacity="0.125"/>
<path d="M32.2035 33.206C31.6323 33.4685 31.0065 33.8105 29.7536 34.498C29.2786 34.7652 28.7823 35.0324 28.3203 35.2842C28.2883 35.2521 28.255 35.2117 28.223 35.1785C25.7446 32.5303 21.1609 30.66 21.3556 27.1035C21.4281 25.8079 21.8734 22.4069 30.1586 18.2768C36.9772 14.9161 42.4029 15.8471 43.3398 17.9122C44.6865 20.856 40.4316 26.334 33.3898 27.1284C32.6104 27.2864 31.8055 27.2673 31.0345 27.0724C30.2635 26.8776 29.5462 26.512 28.9355 26.0026C28.5626 25.5977 28.5068 25.574 28.369 25.6547C28.1422 25.7735 28.2883 26.1404 28.369 26.3506C28.6376 26.8369 29.001 27.2645 29.4377 27.6079C29.8744 27.9514 30.3755 28.2039 30.9115 28.3503C33.6826 28.9493 36.5719 28.6631 39.1717 27.5321C43.4396 25.8803 46.7717 21.2883 45.7956 17.4384C44.8159 13.5351 38.3369 12.2478 32.207 14.4257C28.3682 15.7194 24.8214 17.7558 21.7689 20.419C18.3916 23.5778 17.8573 26.3233 18.0758 27.4728C18.8619 31.5542 24.4883 34.2106 26.7445 36.1783C26.6274 36.2417 26.5248 36.2983 26.437 36.3482C25.3112 36.9075 21.0196 39.1507 19.9496 41.5233C18.7348 44.2118 20.1444 46.1391 21.0754 46.398C22.4784 46.7344 23.9515 46.6241 25.2888 46.0825C26.626 45.5408 27.7606 44.5949 28.5341 43.377C29.1911 42.3672 29.5945 41.2137 29.7101 40.0146C29.8257 38.8154 29.65 37.6061 29.1979 36.4895C29.4645 36.2766 29.749 36.0871 30.0481 35.923C30.6229 35.5834 31.1703 35.2485 31.656 34.9896C33.3193 34.2117 35.1339 33.8106 36.9701 33.8152C40.8247 34.2688 41.5859 36.6735 41.4398 37.6865C41.3713 38.0458 41.2267 38.3863 41.0157 38.6851C40.8048 38.9839 40.5323 39.2341 40.2167 39.419C39.9495 39.5888 39.8605 39.6458 39.8842 39.767C39.9163 39.9451 40.0457 39.9368 40.2725 39.9047C40.8517 39.7217 41.3619 39.3677 41.7362 38.8894C42.1104 38.4111 42.3313 37.8307 42.3696 37.2245C42.4884 34.8495 40.2238 32.2441 36.2148 32.2679C35.0146 32.2714 33.8264 32.5081 32.7165 32.965C32.5383 33.0386 32.3654 33.1178 32.1975 33.2025L32.2035 33.206ZM26.4738 42.5148C25.1936 43.9078 23.4124 44.4338 22.6429 43.9885C21.8116 43.5135 22.1406 41.4532 23.7116 39.9795C24.6413 39.1402 25.6471 38.3892 26.716 37.7363C26.9025 37.6176 27.178 37.4608 27.5093 37.2613L27.5983 37.2126L27.7931 37.0939C28.073 38.0334 28.0984 39.0303 27.8666 39.9828C27.6348 40.9353 27.1541 41.8091 26.4738 42.5148Z" fill="#CD6799"/>
</svg>
