<svg width="70" height="70" viewBox="0 0 70 70" fill="none" xmlns="http://www.w3.org/2000/svg">
<path d="M0 35C0 15.67 15.67 0 35 0C54.33 0 70 15.67 70 35C70 54.33 54.33 70 35 70C15.67 70 0 54.33 0 35Z" fill="#DE1C59" fill-opacity="0.125"/>
<g clip-path="url(#clip0_2059_3023)">
<path d="M24.0918 39.9633C24.0918 42.1393 22.3171 43.9167 20.1407 43.9167C17.9643 43.9167 16.1875 42.1393 16.1875 39.9633C16.1875 37.7872 17.9649 36.0098 20.141 36.0098H24.0921L24.0918 39.9633ZM26.0835 39.9633C26.0835 37.7872 27.8609 36.0098 30.037 36.0098C32.2131 36.0098 33.9905 37.7869 33.9905 39.9633V49.8596C33.9905 52.0357 32.2134 53.8131 30.037 53.8131C27.8609 53.8131 26.0835 52.0357 26.0835 49.8596V39.9633Z" fill="#DE1C59"/>
<path d="M30.037 24.0918C27.8609 24.0918 26.0835 22.3171 26.0835 20.1407C26.0835 17.9643 27.8609 16.1875 30.037 16.1875C32.2131 16.1875 33.9905 17.9649 33.9905 20.141V24.0921L30.037 24.0918ZM30.037 26.0835C32.2131 26.0835 33.9905 27.8609 33.9905 30.037C33.9905 32.2131 32.2134 33.9905 30.037 33.9905H20.1407C17.9646 33.9905 16.1875 32.2134 16.1875 30.037C16.1875 27.8609 17.9649 26.0835 20.141 26.0835H30.037Z" fill="#35C5F0"/>
<path d="M45.9085 30.037C45.9085 27.8609 47.6832 26.0835 49.8596 26.0835C52.036 26.0835 53.8131 27.8609 53.8131 30.037C53.8131 32.2131 52.0357 33.9905 49.8596 33.9905H45.9085V30.037ZM43.9167 30.037C43.9167 32.2131 42.1393 33.9905 39.9633 33.9905C37.7872 33.9905 36.0098 32.2134 36.0098 30.037V20.1407C36.0098 17.9646 37.7869 16.1875 39.9633 16.1875C42.1393 16.1875 43.9167 17.9649 43.9167 20.141V30.037Z" fill="#2EB57D"/>
<path d="M39.9633 45.9085C42.1393 45.9085 43.9167 47.6832 43.9167 49.8596C43.9167 52.036 42.1393 53.8131 39.9633 53.8131C37.7872 53.8131 36.0098 52.0357 36.0098 49.8596V45.9085H39.9633ZM39.9633 43.9167C37.7872 43.9167 36.0098 42.1393 36.0098 39.9633C36.0098 37.7872 37.7869 36.0098 39.9633 36.0098H49.8596C52.0357 36.0098 53.8131 37.7869 53.8131 39.9633C53.8131 42.1393 52.0357 43.9167 49.8596 43.9167H39.9633Z" fill="#EBB02E"/>
</g>
<defs>
<clipPath id="clip0_2059_3023">
<rect width="38" height="38" fill="white" transform="translate(16 16)"/>
</clipPath>
</defs>
</svg>
