<svg width="70" height="70" viewBox="0 0 70 70" fill="none" xmlns="http://www.w3.org/2000/svg">
<rect width="70" height="70" rx="35" fill="#3ECF8E" fill-opacity="0.125"/>
<path d="M45.0938 16H24.9062C19.9875 16 16 19.9875 16 24.9062V45.0938C16 50.0125 19.9875 54 24.9062 54H45.0938C50.0125 54 54 50.0125 54 45.0938V24.9062C54 19.9875 50.0125 16 45.0938 16Z" fill="#242938"/>
<mask id="mask0_2059_2851" style="mask-type:luminance" maskUnits="userSpaceOnUse" x="20" y="20" width="30" height="30">
<path d="M20.75 20.1562H49.3866V49.8438H20.75V20.1562Z" fill="white"/>
</mask>
<g mask="url(#mask0_2059_2851)">
<path d="M37.4879 49.1284C36.7367 50.0744 35.2134 49.556 35.1953 48.3481L34.9307 30.6797H46.8109C48.9626 30.6797 50.1627 33.1651 48.8247 34.8503L37.4879 49.1284Z" fill="url(#paint0_linear_2059_2851)"/>
<path d="M37.4879 49.1284C36.7367 50.0744 35.2134 49.556 35.1953 48.3481L34.9307 30.6797H46.8109C48.9626 30.6797 50.1627 33.1651 48.8247 34.8503L37.4879 49.1284Z" fill="url(#paint1_linear_2059_2851)" fill-opacity="0.2"/>
<path d="M32.6551 20.6996C33.4064 19.7533 34.9296 20.2718 34.9477 21.4798L35.0638 39.1482H23.3322C21.1803 39.1482 19.9802 36.6627 21.3183 34.9775L32.6551 20.6996Z" fill="#3ECF8E"/>
</g>
<defs>
<linearGradient id="paint0_linear_2059_2851" x1="34.9307" y1="34.5973" x2="45.4893" y2="39.0256" gradientUnits="userSpaceOnUse">
<stop stop-color="#249361"/>
<stop offset="1" stop-color="#3ECF8E"/>
</linearGradient>
<linearGradient id="paint1_linear_2059_2851" x1="30.2495" y1="28.1879" x2="35.0649" y2="37.2525" gradientUnits="userSpaceOnUse">
<stop/>
<stop offset="1" stop-opacity="0"/>
</linearGradient>
</defs>
</svg>
